<svg version="1.2" xmlns="http://www.w3.org/2000/svg" viewBox="0 0 193 42" width="193" height="42">
	<style>
		tspan { white-space:pre } 
		.s0 { fill: #00dc33 } 
		.s1 { fill: #ffffff } 
		.t2 { font-size: 30px;fill: #ffffff;font-weight: 400;font-family: "RobotoMono-Regular", "Roboto Mono" } 
	</style>
	<g id="logogram">
		<path class="s0" d="m0 21c0-7.48 0-11.22 1.61-14 1.05-1.82 2.57-3.34 4.39-4.39 2.78-1.61 6.52-1.61 14-1.61 7.48 0 11.22 0 14 1.61 1.82 1.05 3.34 2.57 4.39 4.39 1.61 2.78 1.61 6.52 1.61 14 0 7.48 0 11.22-1.61 14-1.05 1.82-2.57 3.34-4.39 4.39-2.78 1.61-6.52 1.61-14 1.61-7.48 0-11.22 0-14-1.61-1.82-1.05-3.34-2.57-4.39-4.39-1.61-2.78-1.61-6.52-1.61-14z"/>
		<path fill-rule="evenodd" class="s1" d="m28.04 8.61c0.85-0.81 2.18-0.81 3.02-0.03l0.08 0.08 0.28 0.29c2.77 2.98 3.81 6.46 3.54 9.86-0.27 3.44-1.86 6.69-4.08 9.26-2.21 2.56-5.17 4.58-8.37 5.46-3.24 0.89-6.78 0.6-9.86-1.57-2.6-1.84-3.6-4.81-3.66-7.7q-2.2-1.08-4.62-2.7l-0.43-0.29-0.09-0.06c-0.92-0.7-1.13-2-0.46-2.95 0.67-0.96 1.97-1.21 2.96-0.61l0.09 0.06 0.39 0.27q1.45 0.97 2.77 1.7c0.57-1.99 1.5-3.9 2.74-5.47 1.85-2.36 4.63-4.24 8.03-3.96 3.07 0.25 5.33 1.83 6.5 4.06 1.13 2.16 1.15 4.76 0.16 7-1.01 2.28-3.05 4.17-6 4.96-2.12 0.56-4.6 0.52-7.4-0.23q-1.68-0.45-3.51-1.26c-0.27-0.12-0.51 0.07 0 0.39 1.44 1.02 3.48 1.88 4.06 2.17q0.42 0.68 1.02 1.1c1.82 1.28 3.95 1.51 6.14 0.91 2.23-0.61 4.47-2.09 6.21-4.1 1.74-2.01 2.86-4.42 3.04-6.78 0.18-2.23-0.47-4.52-2.41-6.6l-0.19-0.2-0.07-0.08c-0.77-0.86-0.72-2.17 0.12-2.98zm-8.03 5.96c-1.41-0.12-2.89 0.62-4.21 2.3-1 1.27-1.76 2.93-2.15 4.64 2.76 0.94 4.82 0.95 6.24 0.57 1.66-0.44 2.65-1.43 3.13-2.51 0.49-1.12 0.44-2.35-0.04-3.26-0.44-0.85-1.34-1.61-2.97-1.74z"/>
	</g>
	<text id="UniShare" style="transform: matrix(1,0,0,1,48,32)" >
		<tspan x="0" y="0" class="t2">U</tspan><tspan  y="0" class="t2">n</tspan><tspan  y="0" class="t2">i</tspan><tspan  y="0" class="t2">S</tspan><tspan  y="0" class="t2">h</tspan><tspan  y="0" class="t2">a</tspan><tspan  y="0" class="t2">r</tspan><tspan  y="0" class="t2">e
</tspan>
	</text>
</svg>